<?xml version="1.0" encoding="UTF-8"?><svg xmlns="http://www.w3.org/2000/svg" xmlns:xlink="http://www.w3.org/1999/xlink" width="375pt" zoomAndPan="magnify" viewBox="0 0 375 225" height="225pt" preserveAspectRatio="xMidYMid meet" version="1.2"><defs><g/><clipPath xml:id="clip1" id="clip1"><path d="M 280.03125 59 L 352 59 L 352 131 L 280.03125 131 Z M 280.03125 59 "/></clipPath><clipPath xml:id="clip2" id="clip2"><path d="M 294.570312 72.351562 L 371.980469 72.351562 L 371.980469 146.773438 L 294.570312 146.773438 Z M 294.570312 72.351562 "/></clipPath></defs><g xml:id="surface1" id="surface1"><rect x="0" width="375" y="0" height="225" style="fill:rgb(100%,100%,100%);fill-opacity:1;stroke:none;"/><rect x="0" width="375" y="0" height="225" style="fill:rgb(100%,100%,100%);fill-opacity:1;stroke:none;"/><rect x="0" width="375" y="0" height="225" style="fill:rgb(100%,100%,100%);fill-opacity:1;stroke:none;"/><g style="fill:rgb(65.098572%,55.688477%,80.389404%);fill-opacity:1;"><g transform="translate(-1.274238, 160.363037)"><path style="stroke:none;" d="M 89.671875 -26.28125 C 86.992188 -16.90625 82.046875 -9.769531 74.828125 -4.875 C 67.617188 0.0195312 59.117188 2.46875 49.328125 2.46875 C 36.023438 2.46875 25.6875 -2.21875 18.3125 -11.59375 C 10.945312 -20.976562 7.265625 -35.148438 7.265625 -54.109375 C 7.265625 -61.222656 7.882812 -68.4375 9.125 -75.75 C 10.363281 -83.070312 12.523438 -89.695312 15.609375 -95.625 C 18.703125 -101.550781 22.851562 -106.421875 28.0625 -110.234375 C 33.269531 -114.046875 39.84375 -115.953125 47.78125 -115.953125 C 51.695312 -115.953125 55.40625 -115.4375 58.90625 -114.40625 C 62.40625 -113.375 65.46875 -111.851562 68.09375 -109.84375 C 70.726562 -107.832031 72.816406 -105.332031 74.359375 -102.34375 C 75.910156 -99.363281 76.6875 -95.863281 76.6875 -91.84375 C 76.6875 -88.539062 76.066406 -85.910156 74.828125 -83.953125 C 73.585938 -81.992188 71.472656 -81.015625 68.484375 -81.015625 C 67.046875 -81.015625 65.679688 -81.242188 64.390625 -81.703125 C 63.109375 -82.171875 62.050781 -82.867188 61.21875 -83.796875 C 62.144531 -84.515625 62.992188 -86.007812 63.765625 -88.28125 C 64.546875 -90.550781 64.9375 -93.128906 64.9375 -96.015625 C 64.9375 -100.960938 63.75 -104.59375 61.375 -106.90625 C 59.007812 -109.226562 55.867188 -110.390625 51.953125 -110.390625 C 47.304688 -110.390625 43.304688 -108.867188 39.953125 -105.828125 C 36.609375 -102.785156 33.851562 -98.738281 31.6875 -93.6875 C 29.53125 -88.644531 27.960938 -82.925781 26.984375 -76.53125 C 26.003906 -70.144531 25.515625 -63.546875 25.515625 -56.734375 C 25.515625 -48.285156 26.234375 -41.070312 27.671875 -35.09375 C 29.117188 -29.113281 31.234375 -24.21875 34.015625 -20.40625 C 36.796875 -16.59375 40.222656 -13.785156 44.296875 -11.984375 C 48.367188 -10.179688 53.03125 -9.28125 58.28125 -9.28125 C 64.988281 -9.28125 70.554688 -10.75 74.984375 -13.6875 C 79.421875 -16.625 83.03125 -21.335938 85.8125 -27.828125 Z M 89.671875 -26.28125 "/></g></g><g style="fill:rgb(65.098572%,55.688477%,80.389404%);fill-opacity:1;"><g transform="translate(76.800078, 160.363037)"><path style="stroke:none;" d="M 64.15625 -108.234375 L 64.15625 -24.734375 C 64.15625 -23.703125 64.207031 -22.410156 64.3125 -20.859375 C 64.414062 -19.316406 64.695312 -17.796875 65.15625 -16.296875 C 65.625 -14.804688 66.320312 -13.519531 67.25 -12.4375 C 68.175781 -11.363281 69.46875 -10.828125 71.125 -10.828125 C 76.175781 -10.828125 79.882812 -16.441406 82.25 -27.671875 L 87.96875 -27.671875 C 86.832031 -21.179688 85.390625 -16.050781 83.640625 -12.28125 C 81.890625 -8.519531 80.035156 -5.660156 78.078125 -3.703125 C 76.117188 -1.742188 74.109375 -0.484375 72.046875 0.078125 C 69.984375 0.640625 68.128906 0.921875 66.484375 0.921875 C 64.109375 0.921875 62.070312 0.507812 60.375 -0.3125 C 58.675781 -1.132812 57.234375 -2.210938 56.046875 -3.546875 C 54.859375 -4.890625 53.90625 -6.4375 53.1875 -8.1875 C 52.46875 -9.945312 51.898438 -11.804688 51.484375 -13.765625 C 49.941406 -9.742188 47.441406 -6.289062 43.984375 -3.40625 C 40.535156 -0.519531 36.335938 0.921875 31.390625 0.921875 C 28.296875 0.921875 25.175781 0.304688 22.03125 -0.921875 C 18.882812 -2.160156 16.046875 -4.195312 13.515625 -7.03125 C 10.992188 -9.863281 8.9375 -13.519531 7.34375 -18 C 5.75 -22.488281 4.953125 -27.984375 4.953125 -34.484375 C 4.953125 -39.222656 5.488281 -44.164062 6.5625 -49.3125 C 7.644531 -54.46875 9.375 -59.160156 11.75 -63.390625 C 14.125 -67.617188 17.164062 -71.125 20.875 -73.90625 C 24.582031 -76.6875 29.066406 -78.078125 34.328125 -78.078125 C 35.554688 -78.078125 36.867188 -77.945312 38.265625 -77.6875 C 39.660156 -77.4375 41 -77 42.28125 -76.375 C 43.570312 -75.757812 44.785156 -74.910156 45.921875 -73.828125 C 47.054688 -72.742188 47.984375 -71.429688 48.703125 -69.890625 L 48.703125 -106.0625 Z M 35.25 -10.828125 C 36.789062 -10.828125 38.359375 -11.265625 39.953125 -12.140625 C 41.554688 -13.015625 43.003906 -14.195312 44.296875 -15.6875 C 45.585938 -17.1875 46.644531 -18.96875 47.46875 -21.03125 C 48.289062 -23.09375 48.703125 -25.304688 48.703125 -27.671875 L 48.703125 -62.921875 C 47.984375 -64.578125 46.875 -66.097656 45.375 -67.484375 C 43.882812 -68.878906 41.953125 -69.578125 39.578125 -69.578125 C 36.273438 -69.578125 33.4375 -68.46875 31.0625 -66.25 C 28.695312 -64.03125 26.789062 -61.242188 25.34375 -57.890625 C 23.90625 -54.546875 22.851562 -50.890625 22.1875 -46.921875 C 21.519531 -42.953125 21.1875 -39.164062 21.1875 -35.5625 C 21.1875 -26.695312 22.394531 -20.359375 24.8125 -16.546875 C 27.238281 -12.734375 30.71875 -10.828125 35.25 -10.828125 Z M 35.25 -10.828125 "/></g></g><g style="fill:rgb(65.098572%,55.688477%,80.389404%);fill-opacity:1;"><g transform="translate(151.782345, 160.363037)"><path style="stroke:none;" d="M 54.890625 0 L 41.125 -79.46875 L 28.609375 0 L 19.328125 0 L 36.328125 -108.234375 C 29.835938 -106.785156 24.835938 -103.664062 21.328125 -98.875 C 17.828125 -94.082031 16.078125 -87.359375 16.078125 -78.703125 C 16.078125 -75.191406 16.304688 -72.328125 16.765625 -70.109375 C 17.234375 -67.898438 17.773438 -66.125 18.390625 -64.78125 C 19.015625 -63.4375 19.660156 -62.484375 20.328125 -61.921875 C 21.003906 -61.359375 21.492188 -60.972656 21.796875 -60.765625 C 16.234375 -60.765625 11.75 -62.179688 8.34375 -65.015625 C 4.945312 -67.847656 3.25 -72.304688 3.25 -78.390625 C 3.25 -83.441406 4.484375 -88.257812 6.953125 -92.84375 C 9.429688 -97.425781 12.578125 -101.414062 16.390625 -104.8125 C 20.203125 -108.21875 24.398438 -110.925781 28.984375 -112.9375 C 33.578125 -114.945312 38.035156 -115.953125 42.359375 -115.953125 C 44.015625 -115.953125 45.640625 -115.796875 47.234375 -115.484375 C 48.828125 -115.179688 50.347656 -114.617188 51.796875 -113.796875 L 67.25 -23.96875 L 85.34375 -113.796875 L 102.96875 -113.796875 L 111.625 0 L 94 0 L 87.8125 -81.015625 L 71.421875 0 Z M 54.890625 0 "/></g></g><g style="fill:rgb(0%,0%,0%);fill-opacity:1;"><g transform="translate(15.342758, 206.790579)"><path style="stroke:none;" d="M 7.890625 -4.296875 C 8.140625 -4.253906 8.4375 -4.210938 8.78125 -4.171875 C 9.132812 -4.140625 9.46875 -4.125 9.78125 -4.125 C 10.53125 -4.125 11.21875 -4.234375 11.84375 -4.453125 C 12.476562 -4.679688 13.019531 -5.023438 13.46875 -5.484375 C 13.914062 -5.953125 14.265625 -6.550781 14.515625 -7.28125 C 14.773438 -8.019531 14.90625 -8.910156 14.90625 -9.953125 C 14.90625 -11.929688 14.441406 -13.421875 13.515625 -14.421875 C 12.585938 -15.421875 11.351562 -15.921875 9.8125 -15.921875 C 9.507812 -15.921875 9.195312 -15.910156 8.875 -15.890625 C 8.550781 -15.867188 8.222656 -15.835938 7.890625 -15.796875 Z M 9.75 0.53125 C 9.375 0.53125 8.941406 0.519531 8.453125 0.5 C 7.972656 0.476562 7.472656 0.429688 6.953125 0.359375 C 6.441406 0.296875 5.925781 0.210938 5.40625 0.109375 C 4.882812 0.015625 4.40625 -0.117188 3.96875 -0.296875 C 2.75 -0.753906 2.140625 -1.554688 2.140625 -2.703125 L 2.140625 -18.140625 C 2.140625 -18.609375 2.265625 -18.96875 2.515625 -19.21875 C 2.773438 -19.46875 3.125 -19.671875 3.5625 -19.828125 C 4.507812 -20.140625 5.507812 -20.34375 6.5625 -20.4375 C 7.625 -20.539062 8.578125 -20.59375 9.421875 -20.59375 C 11.140625 -20.59375 12.695312 -20.378906 14.09375 -19.953125 C 15.488281 -19.535156 16.6875 -18.890625 17.6875 -18.015625 C 18.695312 -17.148438 19.476562 -16.054688 20.03125 -14.734375 C 20.582031 -13.410156 20.859375 -11.847656 20.859375 -10.046875 C 20.859375 -8.285156 20.59375 -6.75 20.0625 -5.4375 C 19.53125 -4.125 18.773438 -3.019531 17.796875 -2.125 C 16.816406 -1.238281 15.644531 -0.570312 14.28125 -0.125 C 12.914062 0.3125 11.40625 0.53125 9.75 0.53125 Z M 9.75 0.53125 "/></g></g><g style="fill:rgb(0%,0%,0%);fill-opacity:1;"><g transform="translate(41.680567, 206.790579)"><path style="stroke:none;" d="M 10.21875 0.53125 C 8.914062 0.53125 7.707031 0.347656 6.59375 -0.015625 C 5.476562 -0.378906 4.507812 -0.925781 3.6875 -1.65625 C 2.863281 -2.382812 2.210938 -3.296875 1.734375 -4.390625 C 1.265625 -5.492188 1.03125 -6.785156 1.03125 -8.265625 C 1.03125 -9.710938 1.265625 -10.957031 1.734375 -12 C 2.210938 -13.050781 2.835938 -13.910156 3.609375 -14.578125 C 4.378906 -15.253906 5.257812 -15.753906 6.25 -16.078125 C 7.238281 -16.398438 8.25 -16.5625 9.28125 -16.5625 C 10.445312 -16.5625 11.507812 -16.382812 12.46875 -16.03125 C 13.425781 -15.675781 14.253906 -15.1875 14.953125 -14.5625 C 15.648438 -13.945312 16.191406 -13.210938 16.578125 -12.359375 C 16.960938 -11.503906 17.15625 -10.566406 17.15625 -9.546875 C 17.15625 -8.796875 16.941406 -8.222656 16.515625 -7.828125 C 16.097656 -7.429688 15.515625 -7.179688 14.765625 -7.078125 L 6.609375 -5.84375 C 6.847656 -5.125 7.34375 -4.582031 8.09375 -4.21875 C 8.84375 -3.851562 9.703125 -3.671875 10.671875 -3.671875 C 11.578125 -3.671875 12.429688 -3.785156 13.234375 -4.015625 C 14.035156 -4.242188 14.691406 -4.515625 15.203125 -4.828125 C 15.554688 -4.609375 15.851562 -4.300781 16.09375 -3.90625 C 16.332031 -3.507812 16.453125 -3.085938 16.453125 -2.640625 C 16.453125 -1.648438 15.988281 -0.910156 15.0625 -0.421875 C 14.363281 -0.0546875 13.570312 0.191406 12.6875 0.328125 C 11.8125 0.460938 10.988281 0.53125 10.21875 0.53125 Z M 9.28125 -12.453125 C 8.757812 -12.453125 8.304688 -12.363281 7.921875 -12.1875 C 7.535156 -12.019531 7.21875 -11.796875 6.96875 -11.515625 C 6.726562 -11.242188 6.546875 -10.9375 6.421875 -10.59375 C 6.304688 -10.25 6.238281 -9.898438 6.21875 -9.546875 L 11.859375 -10.46875 C 11.796875 -10.914062 11.554688 -11.359375 11.140625 -11.796875 C 10.722656 -12.234375 10.101562 -12.453125 9.28125 -12.453125 Z M 9.875 -24.59375 C 11.019531 -24.59375 11.851562 -24.367188 12.375 -23.921875 C 12.894531 -23.484375 13.15625 -22.957031 13.15625 -22.34375 C 13.15625 -21.769531 13 -21.289062 12.6875 -20.90625 C 12.382812 -20.519531 11.878906 -20.140625 11.171875 -19.765625 L 6.90625 -17.515625 C 6.25 -17.578125 5.6875 -17.835938 5.21875 -18.296875 C 4.757812 -18.765625 4.53125 -19.265625 4.53125 -19.796875 C 4.53125 -20.054688 4.59375 -20.316406 4.71875 -20.578125 C 4.851562 -20.847656 5.078125 -21.09375 5.390625 -21.3125 Z M 9.875 -24.59375 "/></g></g><g style="fill:rgb(0%,0%,0%);fill-opacity:1;"><g transform="translate(64.185332, 206.790579)"><path style="stroke:none;" d="M 12.453125 -0.421875 C 12.148438 -0.179688 11.703125 0.0078125 11.109375 0.15625 C 10.515625 0.3125 9.84375 0.390625 9.09375 0.390625 C 8.226562 0.390625 7.484375 0.28125 6.859375 0.0625 C 6.234375 -0.15625 5.796875 -0.503906 5.546875 -0.984375 C 5.347656 -1.359375 5.109375 -1.878906 4.828125 -2.546875 C 4.554688 -3.222656 4.265625 -3.972656 3.953125 -4.796875 C 3.648438 -5.628906 3.332031 -6.519531 3 -7.46875 C 2.675781 -8.414062 2.363281 -9.351562 2.0625 -10.28125 C 1.769531 -11.207031 1.5 -12.097656 1.25 -12.953125 C 1.007812 -13.816406 0.8125 -14.578125 0.65625 -15.234375 C 0.96875 -15.546875 1.378906 -15.816406 1.890625 -16.046875 C 2.410156 -16.273438 2.984375 -16.390625 3.609375 -16.390625 C 4.378906 -16.390625 5.007812 -16.226562 5.5 -15.90625 C 6 -15.59375 6.367188 -14.992188 6.609375 -14.109375 L 7.890625 -9.0625 C 8.140625 -8.0625 8.375 -7.160156 8.59375 -6.359375 C 8.8125 -5.554688 8.976562 -4.9375 9.09375 -4.5 L 9.25 -4.5 C 9.664062 -6.125 10.101562 -7.925781 10.5625 -9.90625 C 11.03125 -11.894531 11.453125 -13.847656 11.828125 -15.765625 C 12.203125 -15.960938 12.625 -16.113281 13.09375 -16.21875 C 13.570312 -16.332031 14.03125 -16.390625 14.46875 -16.390625 C 15.238281 -16.390625 15.890625 -16.222656 16.421875 -15.890625 C 16.953125 -15.566406 17.21875 -14.992188 17.21875 -14.171875 C 17.21875 -13.816406 17.132812 -13.300781 16.96875 -12.625 C 16.800781 -11.957031 16.59375 -11.203125 16.34375 -10.359375 C 16.09375 -9.515625 15.796875 -8.617188 15.453125 -7.671875 C 15.109375 -6.722656 14.757812 -5.796875 14.40625 -4.890625 C 14.050781 -3.984375 13.703125 -3.140625 13.359375 -2.359375 C 13.023438 -1.578125 12.722656 -0.929688 12.453125 -0.421875 Z M 12.453125 -0.421875 "/></g></g><g style="fill:rgb(0%,0%,0%);fill-opacity:1;"><g transform="translate(86.524874, 206.790579)"><path style="stroke:none;" d="M 10.21875 0.53125 C 8.914062 0.53125 7.707031 0.347656 6.59375 -0.015625 C 5.476562 -0.378906 4.507812 -0.925781 3.6875 -1.65625 C 2.863281 -2.382812 2.210938 -3.296875 1.734375 -4.390625 C 1.265625 -5.492188 1.03125 -6.785156 1.03125 -8.265625 C 1.03125 -9.710938 1.265625 -10.957031 1.734375 -12 C 2.210938 -13.050781 2.835938 -13.910156 3.609375 -14.578125 C 4.378906 -15.253906 5.257812 -15.753906 6.25 -16.078125 C 7.238281 -16.398438 8.25 -16.5625 9.28125 -16.5625 C 10.445312 -16.5625 11.507812 -16.382812 12.46875 -16.03125 C 13.425781 -15.675781 14.253906 -15.1875 14.953125 -14.5625 C 15.648438 -13.945312 16.191406 -13.210938 16.578125 -12.359375 C 16.960938 -11.503906 17.15625 -10.566406 17.15625 -9.546875 C 17.15625 -8.796875 16.941406 -8.222656 16.515625 -7.828125 C 16.097656 -7.429688 15.515625 -7.179688 14.765625 -7.078125 L 6.609375 -5.84375 C 6.847656 -5.125 7.34375 -4.582031 8.09375 -4.21875 C 8.84375 -3.851562 9.703125 -3.671875 10.671875 -3.671875 C 11.578125 -3.671875 12.429688 -3.785156 13.234375 -4.015625 C 14.035156 -4.242188 14.691406 -4.515625 15.203125 -4.828125 C 15.554688 -4.609375 15.851562 -4.300781 16.09375 -3.90625 C 16.332031 -3.507812 16.453125 -3.085938 16.453125 -2.640625 C 16.453125 -1.648438 15.988281 -0.910156 15.0625 -0.421875 C 14.363281 -0.0546875 13.570312 0.191406 12.6875 0.328125 C 11.8125 0.460938 10.988281 0.53125 10.21875 0.53125 Z M 9.28125 -12.453125 C 8.757812 -12.453125 8.304688 -12.363281 7.921875 -12.1875 C 7.535156 -12.019531 7.21875 -11.796875 6.96875 -11.515625 C 6.726562 -11.242188 6.546875 -10.9375 6.421875 -10.59375 C 6.304688 -10.25 6.238281 -9.898438 6.21875 -9.546875 L 11.859375 -10.46875 C 11.796875 -10.914062 11.554688 -11.359375 11.140625 -11.796875 C 10.722656 -12.234375 10.101562 -12.453125 9.28125 -12.453125 Z M 9.28125 -12.453125 "/></g></g><g style="fill:rgb(0%,0%,0%);fill-opacity:1;"><g transform="translate(108.996598, 206.790579)"><path style="stroke:none;" d="M 7.4375 -0.03125 C 7.195312 0.0078125 6.835938 0.0664062 6.359375 0.140625 C 5.890625 0.222656 5.410156 0.265625 4.921875 0.265625 C 4.441406 0.265625 4.007812 0.226562 3.625 0.15625 C 3.238281 0.09375 2.910156 -0.0351562 2.640625 -0.234375 C 2.378906 -0.429688 2.175781 -0.695312 2.03125 -1.03125 C 1.882812 -1.375 1.8125 -1.820312 1.8125 -2.375 L 1.8125 -21.546875 C 2.0625 -21.585938 2.421875 -21.644531 2.890625 -21.71875 C 3.367188 -21.800781 3.847656 -21.84375 4.328125 -21.84375 C 4.816406 -21.84375 5.253906 -21.804688 5.640625 -21.734375 C 6.023438 -21.671875 6.347656 -21.539062 6.609375 -21.34375 C 6.867188 -21.144531 7.070312 -20.875 7.21875 -20.53125 C 7.363281 -20.195312 7.4375 -19.753906 7.4375 -19.203125 Z M 7.4375 -0.03125 "/></g></g><g style="fill:rgb(0%,0%,0%);fill-opacity:1;"><g transform="translate(122.579601, 206.790579)"><path style="stroke:none;" d="M 18.34375 -8.03125 C 18.34375 -6.664062 18.128906 -5.445312 17.703125 -4.375 C 17.285156 -3.3125 16.695312 -2.414062 15.9375 -1.6875 C 15.1875 -0.957031 14.28125 -0.40625 13.21875 -0.03125 C 12.15625 0.34375 10.976562 0.53125 9.6875 0.53125 C 8.382812 0.53125 7.203125 0.332031 6.140625 -0.0625 C 5.085938 -0.457031 4.179688 -1.023438 3.421875 -1.765625 C 2.660156 -2.503906 2.070312 -3.398438 1.65625 -4.453125 C 1.238281 -5.515625 1.03125 -6.707031 1.03125 -8.03125 C 1.03125 -9.332031 1.238281 -10.507812 1.65625 -11.5625 C 2.070312 -12.625 2.660156 -13.519531 3.421875 -14.25 C 4.179688 -14.988281 5.085938 -15.554688 6.140625 -15.953125 C 7.203125 -16.359375 8.382812 -16.5625 9.6875 -16.5625 C 10.976562 -16.5625 12.15625 -16.351562 13.21875 -15.9375 C 14.28125 -15.53125 15.1875 -14.957031 15.9375 -14.21875 C 16.695312 -13.488281 17.285156 -12.59375 17.703125 -11.53125 C 18.128906 -10.476562 18.34375 -9.3125 18.34375 -8.03125 Z M 6.78125 -8.03125 C 6.78125 -6.6875 7.035156 -5.65625 7.546875 -4.9375 C 8.066406 -4.21875 8.789062 -3.859375 9.71875 -3.859375 C 10.644531 -3.859375 11.351562 -4.222656 11.84375 -4.953125 C 12.34375 -5.679688 12.59375 -6.707031 12.59375 -8.03125 C 12.59375 -9.351562 12.335938 -10.367188 11.828125 -11.078125 C 11.328125 -11.796875 10.613281 -12.15625 9.6875 -12.15625 C 8.757812 -12.15625 8.039062 -11.796875 7.53125 -11.078125 C 7.03125 -10.367188 6.78125 -9.351562 6.78125 -8.03125 Z M 6.78125 -8.03125 "/></g></g><g style="fill:rgb(0%,0%,0%);fill-opacity:1;"><g transform="translate(146.273926, 206.790579)"><path style="stroke:none;" d="M 9.09375 -16.5625 C 10.414062 -16.5625 11.640625 -16.390625 12.765625 -16.046875 C 13.898438 -15.703125 14.875 -15.175781 15.6875 -14.46875 C 16.507812 -13.769531 17.148438 -12.882812 17.609375 -11.8125 C 18.078125 -10.75 18.3125 -9.476562 18.3125 -8 C 18.3125 -6.582031 18.113281 -5.34375 17.71875 -4.28125 C 17.320312 -3.226562 16.757812 -2.34375 16.03125 -1.625 C 15.300781 -0.914062 14.421875 -0.382812 13.390625 -0.03125 C 12.367188 0.320312 11.234375 0.5 9.984375 0.5 C 9.035156 0.5 8.15625 0.351562 7.34375 0.0625 L 7.34375 5.546875 C 7.113281 5.617188 6.753906 5.691406 6.265625 5.765625 C 5.785156 5.835938 5.296875 5.875 4.796875 5.875 C 4.304688 5.875 3.867188 5.84375 3.484375 5.78125 C 3.097656 5.71875 2.769531 5.585938 2.5 5.390625 C 2.238281 5.191406 2.039062 4.921875 1.90625 4.578125 C 1.78125 4.234375 1.71875 3.785156 1.71875 3.234375 L 1.71875 -12.625 C 1.71875 -13.21875 1.84375 -13.703125 2.09375 -14.078125 C 2.351562 -14.453125 2.703125 -14.796875 3.140625 -15.109375 C 3.816406 -15.546875 4.660156 -15.894531 5.671875 -16.15625 C 6.691406 -16.425781 7.832031 -16.5625 9.09375 -16.5625 Z M 9.15625 -3.9375 C 11.425781 -3.9375 12.5625 -5.289062 12.5625 -8 C 12.5625 -9.40625 12.28125 -10.445312 11.71875 -11.125 C 11.15625 -11.8125 10.34375 -12.15625 9.28125 -12.15625 C 8.863281 -12.15625 8.488281 -12.101562 8.15625 -12 C 7.832031 -11.90625 7.546875 -11.796875 7.296875 -11.671875 L 7.296875 -4.390625 C 7.566406 -4.265625 7.851562 -4.15625 8.15625 -4.0625 C 8.46875 -3.976562 8.800781 -3.9375 9.15625 -3.9375 Z M 9.15625 -3.9375 "/></g></g><g style="fill:rgb(0%,0%,0%);fill-opacity:1;"><g transform="translate(169.935209, 206.790579)"><path style="stroke:none;" d="M 9.09375 -16.5625 C 10.414062 -16.5625 11.640625 -16.390625 12.765625 -16.046875 C 13.898438 -15.703125 14.875 -15.175781 15.6875 -14.46875 C 16.507812 -13.769531 17.148438 -12.882812 17.609375 -11.8125 C 18.078125 -10.75 18.3125 -9.476562 18.3125 -8 C 18.3125 -6.582031 18.113281 -5.34375 17.71875 -4.28125 C 17.320312 -3.226562 16.757812 -2.34375 16.03125 -1.625 C 15.300781 -0.914062 14.421875 -0.382812 13.390625 -0.03125 C 12.367188 0.320312 11.234375 0.5 9.984375 0.5 C 9.035156 0.5 8.15625 0.351562 7.34375 0.0625 L 7.34375 5.546875 C 7.113281 5.617188 6.753906 5.691406 6.265625 5.765625 C 5.785156 5.835938 5.296875 5.875 4.796875 5.875 C 4.304688 5.875 3.867188 5.84375 3.484375 5.78125 C 3.097656 5.71875 2.769531 5.585938 2.5 5.390625 C 2.238281 5.191406 2.039062 4.921875 1.90625 4.578125 C 1.78125 4.234375 1.71875 3.785156 1.71875 3.234375 L 1.71875 -12.625 C 1.71875 -13.21875 1.84375 -13.703125 2.09375 -14.078125 C 2.351562 -14.453125 2.703125 -14.796875 3.140625 -15.109375 C 3.816406 -15.546875 4.660156 -15.894531 5.671875 -16.15625 C 6.691406 -16.425781 7.832031 -16.5625 9.09375 -16.5625 Z M 9.15625 -3.9375 C 11.425781 -3.9375 12.5625 -5.289062 12.5625 -8 C 12.5625 -9.40625 12.28125 -10.445312 11.71875 -11.125 C 11.15625 -11.8125 10.34375 -12.15625 9.28125 -12.15625 C 8.863281 -12.15625 8.488281 -12.101562 8.15625 -12 C 7.832031 -11.90625 7.546875 -11.796875 7.296875 -11.671875 L 7.296875 -4.390625 C 7.566406 -4.265625 7.851562 -4.15625 8.15625 -4.0625 C 8.46875 -3.976562 8.800781 -3.9375 9.15625 -3.9375 Z M 9.15625 -3.9375 "/></g></g><g style="fill:rgb(0%,0%,0%);fill-opacity:1;"><g transform="translate(193.596492, 206.790579)"><path style="stroke:none;" d="M 10.21875 0.53125 C 8.914062 0.53125 7.707031 0.347656 6.59375 -0.015625 C 5.476562 -0.378906 4.507812 -0.925781 3.6875 -1.65625 C 2.863281 -2.382812 2.210938 -3.296875 1.734375 -4.390625 C 1.265625 -5.492188 1.03125 -6.785156 1.03125 -8.265625 C 1.03125 -9.710938 1.265625 -10.957031 1.734375 -12 C 2.210938 -13.050781 2.835938 -13.910156 3.609375 -14.578125 C 4.378906 -15.253906 5.257812 -15.753906 6.25 -16.078125 C 7.238281 -16.398438 8.25 -16.5625 9.28125 -16.5625 C 10.445312 -16.5625 11.507812 -16.382812 12.46875 -16.03125 C 13.425781 -15.675781 14.253906 -15.1875 14.953125 -14.5625 C 15.648438 -13.945312 16.191406 -13.210938 16.578125 -12.359375 C 16.960938 -11.503906 17.15625 -10.566406 17.15625 -9.546875 C 17.15625 -8.796875 16.941406 -8.222656 16.515625 -7.828125 C 16.097656 -7.429688 15.515625 -7.179688 14.765625 -7.078125 L 6.609375 -5.84375 C 6.847656 -5.125 7.34375 -4.582031 8.09375 -4.21875 C 8.84375 -3.851562 9.703125 -3.671875 10.671875 -3.671875 C 11.578125 -3.671875 12.429688 -3.785156 13.234375 -4.015625 C 14.035156 -4.242188 14.691406 -4.515625 15.203125 -4.828125 C 15.554688 -4.609375 15.851562 -4.300781 16.09375 -3.90625 C 16.332031 -3.507812 16.453125 -3.085938 16.453125 -2.640625 C 16.453125 -1.648438 15.988281 -0.910156 15.0625 -0.421875 C 14.363281 -0.0546875 13.570312 0.191406 12.6875 0.328125 C 11.8125 0.460938 10.988281 0.53125 10.21875 0.53125 Z M 9.28125 -12.453125 C 8.757812 -12.453125 8.304688 -12.363281 7.921875 -12.1875 C 7.535156 -12.019531 7.21875 -11.796875 6.96875 -11.515625 C 6.726562 -11.242188 6.546875 -10.9375 6.421875 -10.59375 C 6.304688 -10.25 6.238281 -9.898438 6.21875 -9.546875 L 11.859375 -10.46875 C 11.796875 -10.914062 11.554688 -11.359375 11.140625 -11.796875 C 10.722656 -12.234375 10.101562 -12.453125 9.28125 -12.453125 Z M 9.28125 -12.453125 "/></g></g><g style="fill:rgb(0%,0%,0%);fill-opacity:1;"><g transform="translate(216.068216, 206.790579)"><path style="stroke:none;" d="M 1.71875 -15.828125 C 1.9375 -15.890625 2.28125 -15.953125 2.75 -16.015625 C 3.226562 -16.085938 3.722656 -16.125 4.234375 -16.125 C 4.710938 -16.125 5.144531 -16.085938 5.53125 -16.015625 C 5.914062 -15.953125 6.238281 -15.820312 6.5 -15.625 C 6.769531 -15.425781 6.976562 -15.15625 7.125 -14.8125 C 7.269531 -14.476562 7.34375 -14.035156 7.34375 -13.484375 L 7.34375 -6.375 C 7.34375 -5.46875 7.5625 -4.820312 8 -4.4375 C 8.4375 -4.050781 9.078125 -3.859375 9.921875 -3.859375 C 10.421875 -3.859375 10.828125 -3.898438 11.140625 -3.984375 C 11.460938 -4.078125 11.710938 -4.171875 11.890625 -4.265625 L 11.890625 -15.828125 C 12.117188 -15.890625 12.46875 -15.953125 12.9375 -16.015625 C 13.40625 -16.085938 13.894531 -16.125 14.40625 -16.125 C 14.894531 -16.125 15.332031 -16.085938 15.71875 -16.015625 C 16.101562 -15.953125 16.425781 -15.820312 16.6875 -15.625 C 16.945312 -15.425781 17.148438 -15.15625 17.296875 -14.8125 C 17.441406 -14.476562 17.515625 -14.035156 17.515625 -13.484375 L 17.515625 -3.4375 C 17.515625 -2.332031 17.050781 -1.503906 16.125 -0.953125 C 15.351562 -0.472656 14.429688 -0.109375 13.359375 0.140625 C 12.296875 0.398438 11.132812 0.53125 9.875 0.53125 C 8.6875 0.53125 7.59375 0.394531 6.59375 0.125 C 5.59375 -0.132812 4.726562 -0.539062 4 -1.09375 C 3.269531 -1.644531 2.707031 -2.351562 2.3125 -3.21875 C 1.914062 -4.09375 1.71875 -5.144531 1.71875 -6.375 Z M 1.71875 -15.828125 "/></g></g><g style="fill:rgb(0%,0%,0%);fill-opacity:1;"><g transform="translate(239.630375, 206.790579)"><path style="stroke:none;" d="M 15.265625 -4.796875 C 15.265625 -3.117188 14.632812 -1.804688 13.375 -0.859375 C 12.125 0.0859375 10.273438 0.5625 7.828125 0.5625 C 6.898438 0.5625 6.039062 0.492188 5.25 0.359375 C 4.457031 0.234375 3.78125 0.0351562 3.21875 -0.234375 C 2.65625 -0.515625 2.210938 -0.863281 1.890625 -1.28125 C 1.578125 -1.707031 1.421875 -2.207031 1.421875 -2.78125 C 1.421875 -3.300781 1.53125 -3.742188 1.75 -4.109375 C 1.96875 -4.472656 2.234375 -4.773438 2.546875 -5.015625 C 3.179688 -4.671875 3.910156 -4.359375 4.734375 -4.078125 C 5.566406 -3.804688 6.519531 -3.671875 7.59375 -3.671875 C 8.28125 -3.671875 8.804688 -3.769531 9.171875 -3.96875 C 9.535156 -4.164062 9.71875 -4.429688 9.71875 -4.765625 C 9.71875 -5.066406 9.582031 -5.304688 9.3125 -5.484375 C 9.050781 -5.660156 8.613281 -5.804688 8 -5.921875 L 7 -6.109375 C 5.082031 -6.484375 3.65625 -7.070312 2.71875 -7.875 C 1.789062 -8.6875 1.328125 -9.835938 1.328125 -11.328125 C 1.328125 -12.148438 1.5 -12.890625 1.84375 -13.546875 C 2.195312 -14.210938 2.691406 -14.765625 3.328125 -15.203125 C 3.972656 -15.640625 4.738281 -15.976562 5.625 -16.21875 C 6.519531 -16.46875 7.507812 -16.59375 8.59375 -16.59375 C 9.40625 -16.59375 10.171875 -16.53125 10.890625 -16.40625 C 11.609375 -16.28125 12.226562 -16.097656 12.75 -15.859375 C 13.28125 -15.617188 13.695312 -15.304688 14 -14.921875 C 14.3125 -14.535156 14.46875 -14.078125 14.46875 -13.546875 C 14.46875 -13.046875 14.375 -12.613281 14.1875 -12.25 C 14 -11.882812 13.765625 -11.578125 13.484375 -11.328125 C 13.304688 -11.441406 13.039062 -11.554688 12.6875 -11.671875 C 12.332031 -11.796875 11.945312 -11.90625 11.53125 -12 C 11.113281 -12.101562 10.6875 -12.1875 10.25 -12.25 C 9.820312 -12.320312 9.4375 -12.359375 9.09375 -12.359375 C 8.363281 -12.359375 7.800781 -12.273438 7.40625 -12.109375 C 7.007812 -11.941406 6.8125 -11.679688 6.8125 -11.328125 C 6.8125 -11.085938 6.921875 -10.890625 7.140625 -10.734375 C 7.359375 -10.585938 7.773438 -10.445312 8.390625 -10.3125 L 9.421875 -10.078125 C 11.535156 -9.597656 13.035156 -8.929688 13.921875 -8.078125 C 14.816406 -7.234375 15.265625 -6.140625 15.265625 -4.796875 Z M 15.265625 -4.796875 "/></g></g><g style="fill:rgb(0%,0%,0%);fill-opacity:1;"><g transform="translate(260.218618, 206.790579)"><path style="stroke:none;" d="M 10.21875 0.53125 C 8.914062 0.53125 7.707031 0.347656 6.59375 -0.015625 C 5.476562 -0.378906 4.507812 -0.925781 3.6875 -1.65625 C 2.863281 -2.382812 2.210938 -3.296875 1.734375 -4.390625 C 1.265625 -5.492188 1.03125 -6.785156 1.03125 -8.265625 C 1.03125 -9.710938 1.265625 -10.957031 1.734375 -12 C 2.210938 -13.050781 2.835938 -13.910156 3.609375 -14.578125 C 4.378906 -15.253906 5.257812 -15.753906 6.25 -16.078125 C 7.238281 -16.398438 8.25 -16.5625 9.28125 -16.5625 C 10.445312 -16.5625 11.507812 -16.382812 12.46875 -16.03125 C 13.425781 -15.675781 14.253906 -15.1875 14.953125 -14.5625 C 15.648438 -13.945312 16.191406 -13.210938 16.578125 -12.359375 C 16.960938 -11.503906 17.15625 -10.566406 17.15625 -9.546875 C 17.15625 -8.796875 16.941406 -8.222656 16.515625 -7.828125 C 16.097656 -7.429688 15.515625 -7.179688 14.765625 -7.078125 L 6.609375 -5.84375 C 6.847656 -5.125 7.34375 -4.582031 8.09375 -4.21875 C 8.84375 -3.851562 9.703125 -3.671875 10.671875 -3.671875 C 11.578125 -3.671875 12.429688 -3.785156 13.234375 -4.015625 C 14.035156 -4.242188 14.691406 -4.515625 15.203125 -4.828125 C 15.554688 -4.609375 15.851562 -4.300781 16.09375 -3.90625 C 16.332031 -3.507812 16.453125 -3.085938 16.453125 -2.640625 C 16.453125 -1.648438 15.988281 -0.910156 15.0625 -0.421875 C 14.363281 -0.0546875 13.570312 0.191406 12.6875 0.328125 C 11.8125 0.460938 10.988281 0.53125 10.21875 0.53125 Z M 9.28125 -12.453125 C 8.757812 -12.453125 8.304688 -12.363281 7.921875 -12.1875 C 7.535156 -12.019531 7.21875 -11.796875 6.96875 -11.515625 C 6.726562 -11.242188 6.546875 -10.9375 6.421875 -10.59375 C 6.304688 -10.25 6.238281 -9.898438 6.21875 -9.546875 L 11.859375 -10.46875 C 11.796875 -10.914062 11.554688 -11.359375 11.140625 -11.796875 C 10.722656 -12.234375 10.101562 -12.453125 9.28125 -12.453125 Z M 9.28125 -12.453125 "/></g></g><g style="fill:rgb(0%,0%,0%);fill-opacity:1;"><g transform="translate(282.690342, 206.790579)"><path style="stroke:none;" d=""/></g></g><g style="fill:rgb(0%,0%,0%);fill-opacity:1;"><g transform="translate(293.629878, 206.790579)"><path style="stroke:none;" d="M 10.875 -0.5 C 10.5625 -0.226562 10.140625 -0.015625 9.609375 0.140625 C 9.085938 0.304688 8.460938 0.390625 7.734375 0.390625 C 6.828125 0.390625 6.039062 0.265625 5.375 0.015625 C 4.71875 -0.234375 4.28125 -0.59375 4.0625 -1.0625 C 3.820312 -1.582031 3.539062 -2.414062 3.21875 -3.5625 C 2.90625 -4.707031 2.59375 -5.960938 2.28125 -7.328125 C 1.96875 -8.703125 1.671875 -10.09375 1.390625 -11.5 C 1.117188 -12.90625 0.910156 -14.148438 0.765625 -15.234375 C 1.066406 -15.546875 1.476562 -15.816406 2 -16.046875 C 2.519531 -16.273438 3.085938 -16.390625 3.703125 -16.390625 C 4.472656 -16.390625 5.101562 -16.21875 5.59375 -15.875 C 6.09375 -15.53125 6.398438 -14.941406 6.515625 -14.109375 C 6.734375 -12.429688 6.914062 -11.046875 7.0625 -9.953125 C 7.21875 -8.867188 7.34375 -7.976562 7.4375 -7.28125 C 7.539062 -6.59375 7.617188 -6.066406 7.671875 -5.703125 C 7.734375 -5.335938 7.785156 -5.046875 7.828125 -4.828125 L 7.96875 -4.828125 C 8.03125 -5.179688 8.144531 -5.691406 8.3125 -6.359375 C 8.476562 -7.035156 8.671875 -7.800781 8.890625 -8.65625 C 9.109375 -9.519531 9.335938 -10.453125 9.578125 -11.453125 C 9.828125 -12.453125 10.070312 -13.445312 10.3125 -14.4375 C 10.75 -14.6875 11.179688 -14.875 11.609375 -15 C 12.046875 -15.132812 12.582031 -15.203125 13.21875 -15.203125 C 13.988281 -15.203125 14.648438 -15.078125 15.203125 -14.828125 C 15.753906 -14.585938 16.109375 -14.21875 16.265625 -13.71875 C 16.523438 -12.75 16.773438 -11.804688 17.015625 -10.890625 C 17.253906 -9.972656 17.472656 -9.125 17.671875 -8.34375 C 17.878906 -7.5625 18.054688 -6.867188 18.203125 -6.265625 C 18.359375 -5.660156 18.472656 -5.179688 18.546875 -4.828125 L 18.703125 -4.828125 C 18.941406 -6.523438 19.175781 -8.285156 19.40625 -10.109375 C 19.644531 -11.941406 19.863281 -13.804688 20.0625 -15.703125 C 20.457031 -15.941406 20.875 -16.113281 21.3125 -16.21875 C 21.75 -16.332031 22.191406 -16.390625 22.640625 -16.390625 C 23.410156 -16.390625 24.046875 -16.222656 24.546875 -15.890625 C 25.054688 -15.566406 25.3125 -14.992188 25.3125 -14.171875 C 25.3125 -13.816406 25.253906 -13.285156 25.140625 -12.578125 C 25.035156 -11.878906 24.894531 -11.085938 24.71875 -10.203125 C 24.539062 -9.328125 24.335938 -8.40625 24.109375 -7.4375 C 23.878906 -6.46875 23.644531 -5.53125 23.40625 -4.625 C 23.175781 -3.71875 22.957031 -2.898438 22.75 -2.171875 C 22.539062 -1.453125 22.359375 -0.894531 22.203125 -0.5 C 21.898438 -0.226562 21.425781 -0.015625 20.78125 0.140625 C 20.144531 0.304688 19.460938 0.390625 18.734375 0.390625 C 16.890625 0.390625 15.800781 -0.0664062 15.46875 -0.984375 C 15.332031 -1.390625 15.164062 -1.894531 14.96875 -2.5 C 14.769531 -3.101562 14.5625 -3.765625 14.34375 -4.484375 C 14.125 -5.210938 13.914062 -5.96875 13.71875 -6.75 C 13.519531 -7.539062 13.351562 -8.296875 13.21875 -9.015625 C 13.0625 -8.242188 12.875 -7.445312 12.65625 -6.625 C 12.4375 -5.800781 12.207031 -5 11.96875 -4.21875 C 11.738281 -3.4375 11.523438 -2.71875 11.328125 -2.0625 C 11.128906 -1.414062 10.976562 -0.894531 10.875 -0.5 Z M 10.875 -0.5 "/></g></g><g style="fill:rgb(0%,0%,0%);fill-opacity:1;"><g transform="translate(324.098119, 206.790579)"><path style="stroke:none;" d="M 10.21875 0.53125 C 8.914062 0.53125 7.707031 0.347656 6.59375 -0.015625 C 5.476562 -0.378906 4.507812 -0.925781 3.6875 -1.65625 C 2.863281 -2.382812 2.210938 -3.296875 1.734375 -4.390625 C 1.265625 -5.492188 1.03125 -6.785156 1.03125 -8.265625 C 1.03125 -9.710938 1.265625 -10.957031 1.734375 -12 C 2.210938 -13.050781 2.835938 -13.910156 3.609375 -14.578125 C 4.378906 -15.253906 5.257812 -15.753906 6.25 -16.078125 C 7.238281 -16.398438 8.25 -16.5625 9.28125 -16.5625 C 10.445312 -16.5625 11.507812 -16.382812 12.46875 -16.03125 C 13.425781 -15.675781 14.253906 -15.1875 14.953125 -14.5625 C 15.648438 -13.945312 16.191406 -13.210938 16.578125 -12.359375 C 16.960938 -11.503906 17.15625 -10.566406 17.15625 -9.546875 C 17.15625 -8.796875 16.941406 -8.222656 16.515625 -7.828125 C 16.097656 -7.429688 15.515625 -7.179688 14.765625 -7.078125 L 6.609375 -5.84375 C 6.847656 -5.125 7.34375 -4.582031 8.09375 -4.21875 C 8.84375 -3.851562 9.703125 -3.671875 10.671875 -3.671875 C 11.578125 -3.671875 12.429688 -3.785156 13.234375 -4.015625 C 14.035156 -4.242188 14.691406 -4.515625 15.203125 -4.828125 C 15.554688 -4.609375 15.851562 -4.300781 16.09375 -3.90625 C 16.332031 -3.507812 16.453125 -3.085938 16.453125 -2.640625 C 16.453125 -1.648438 15.988281 -0.910156 15.0625 -0.421875 C 14.363281 -0.0546875 13.570312 0.191406 12.6875 0.328125 C 11.8125 0.460938 10.988281 0.53125 10.21875 0.53125 Z M 9.28125 -12.453125 C 8.757812 -12.453125 8.304688 -12.363281 7.921875 -12.1875 C 7.535156 -12.019531 7.21875 -11.796875 6.96875 -11.515625 C 6.726562 -11.242188 6.546875 -10.9375 6.421875 -10.59375 C 6.304688 -10.25 6.238281 -9.898438 6.21875 -9.546875 L 11.859375 -10.46875 C 11.796875 -10.914062 11.554688 -11.359375 11.140625 -11.796875 C 10.722656 -12.234375 10.101562 -12.453125 9.28125 -12.453125 Z M 9.28125 -12.453125 "/></g></g><g style="fill:rgb(0%,0%,0%);fill-opacity:1;"><g transform="translate(346.569859, 206.790579)"><path style="stroke:none;" d="M 1.78125 -21.515625 C 2 -21.578125 2.347656 -21.644531 2.828125 -21.71875 C 3.316406 -21.800781 3.816406 -21.84375 4.328125 -21.84375 C 4.816406 -21.84375 5.253906 -21.804688 5.640625 -21.734375 C 6.023438 -21.671875 6.347656 -21.539062 6.609375 -21.34375 C 6.867188 -21.144531 7.066406 -20.875 7.203125 -20.53125 C 7.335938 -20.195312 7.40625 -19.753906 7.40625 -19.203125 L 7.40625 -15.96875 C 7.957031 -16.1875 8.476562 -16.335938 8.96875 -16.421875 C 9.46875 -16.515625 10.015625 -16.5625 10.609375 -16.5625 C 11.660156 -16.5625 12.660156 -16.375 13.609375 -16 C 14.554688 -15.625 15.394531 -15.078125 16.125 -14.359375 C 16.851562 -13.640625 17.425781 -12.75 17.84375 -11.6875 C 18.257812 -10.632812 18.46875 -9.414062 18.46875 -8.03125 C 18.46875 -6.59375 18.253906 -5.335938 17.828125 -4.265625 C 17.398438 -3.203125 16.800781 -2.316406 16.03125 -1.609375 C 15.257812 -0.910156 14.316406 -0.378906 13.203125 -0.015625 C 12.085938 0.347656 10.859375 0.53125 9.515625 0.53125 C 8.066406 0.53125 6.832031 0.359375 5.8125 0.015625 C 4.800781 -0.328125 3.941406 -0.75 3.234375 -1.25 C 2.265625 -1.9375 1.78125 -2.820312 1.78125 -3.90625 Z M 9.515625 -3.90625 C 10.523438 -3.90625 11.3125 -4.25 11.875 -4.9375 C 12.4375 -5.632812 12.71875 -6.664062 12.71875 -8.03125 C 12.71875 -9.414062 12.429688 -10.445312 11.859375 -11.125 C 11.285156 -11.8125 10.515625 -12.15625 9.546875 -12.15625 C 9.109375 -12.15625 8.726562 -12.109375 8.40625 -12.015625 C 8.09375 -11.929688 7.75 -11.800781 7.375 -11.625 L 7.375 -4.421875 C 7.613281 -4.273438 7.898438 -4.148438 8.234375 -4.046875 C 8.578125 -3.953125 9.003906 -3.90625 9.515625 -3.90625 Z M 9.515625 -3.90625 "/></g></g><g clip-rule="nonzero" clip-path="url(#clip1)"><path style=" stroke:none;fill-rule:nonzero;fill:rgb(65.098572%,55.688477%,80.389404%);fill-opacity:1;" d="M 315.621094 130.363281 C 295.96875 130.363281 280.03125 114.386719 280.03125 94.6875 C 280.03125 74.984375 295.96875 59.007812 315.621094 59.007812 C 335.269531 59.003906 351.207031 74.984375 351.207031 94.6875 C 351.207031 101.21875 349.441406 107.34375 346.394531 112.613281 C 337.074219 109.277344 327.757812 105.941406 318.441406 102.621094 C 321.75 111.066406 325.078125 119.515625 328.40625 127.976562 C 324.429688 129.503906 320.121094 130.363281 315.621094 130.363281 "/></g><g clip-rule="nonzero" clip-path="url(#clip2)"><path style=" stroke:none;fill-rule:nonzero;fill:rgb(5.879211%,5.488586%,4.708862%);fill-opacity:1;" d="M 362.890625 146.519531 C 363.222656 146.167969 363.207031 145.605469 362.855469 145.273438 L 350.929688 133.929688 C 350.578125 133.597656 350.019531 133.613281 349.683594 133.964844 L 341.070312 143.078125 L 324.167969 100.128906 L 367.179688 115.511719 L 358.566406 124.21875 C 358.390625 124.394531 358.300781 124.625 358.320312 124.851562 C 358.320312 125.097656 358.425781 125.308594 358.601562 125.484375 L 370.507812 136.457031 C 370.859375 136.792969 371.417969 136.757812 371.753906 136.40625 C 372.085938 136.054688 372.050781 135.492188 371.699219 135.160156 L 360.457031 124.800781 L 369.40625 115.757812 C 369.617188 115.546875 369.703125 115.230469 369.632812 114.949219 C 369.5625 114.648438 369.351562 114.421875 369.074219 114.316406 L 322.941406 97.8125 C 322.625 97.6875 322.257812 97.777344 322.011719 98.023438 C 321.769531 98.269531 321.699219 98.636719 321.820312 98.953125 L 339.929688 144.992188 C 340.035156 145.273438 340.28125 145.464844 340.578125 145.535156 C 340.875 145.589844 341.171875 145.5 341.382812 145.273438 L 350.351562 135.789062 L 361.648438 146.519531 C 361.820312 146.675781 362.03125 146.765625 362.242188 146.765625 C 362.488281 146.800781 362.714844 146.710938 362.890625 146.519531 Z M 316.25 93.492188 C 316.585938 93.140625 316.585938 92.597656 316.234375 92.246094 L 304.0625 80.339844 C 303.710938 80.007812 303.167969 80.007812 302.816406 80.359375 C 302.484375 80.707031 302.484375 81.253906 302.835938 81.605469 L 315.007812 93.507812 C 315.183594 93.667969 315.394531 93.753906 315.621094 93.753906 C 315.847656 93.753906 316.078125 93.667969 316.25 93.492188 Z M 312.242188 104.167969 C 312.242188 103.675781 311.855469 103.289062 311.363281 103.289062 L 295.53125 103.289062 C 295.042969 103.289062 294.65625 103.675781 294.65625 104.167969 C 294.65625 104.660156 295.042969 105.046875 295.53125 105.046875 L 311.363281 105.046875 C 311.839844 105.046875 312.242188 104.660156 312.242188 104.167969 Z M 325.972656 89.488281 C 325.480469 89.488281 325.097656 89.101562 325.097656 88.609375 L 325.097656 73.351562 C 325.097656 72.859375 325.480469 72.472656 325.972656 72.472656 C 326.460938 72.472656 326.847656 72.859375 326.847656 73.351562 L 326.847656 88.609375 C 326.847656 89.085938 326.445312 89.488281 325.972656 89.488281 "/></g></g></svg>